<?xml version="1.0" encoding="UTF-8"?>
<!DOCTYPE svg PUBLIC "-//W3C//DTD SVG 1.1//EN" "http://www.w3.org/Graphics/SVG/1.1/DTD/svg11.dtd">
<svg xmlns="http://www.w3.org/2000/svg" version="1.1" width="80px" height="80px" style="shape-rendering:geometricPrecision; text-rendering:geometricPrecision; image-rendering:optimizeQuality; fill-rule:evenodd; clip-rule:evenodd" xmlns:xlink="http://www.w3.org/1999/xlink">
<g><path style="opacity:0.85" fill="#e5c378" d="M 12.5,-0.5 C 30.5,-0.5 48.5,-0.5 66.5,-0.5C 67.3007,1.04181 67.634,2.70848 67.5,4.5C 71.5662,4.30698 75.5662,4.64032 79.5,5.5C 79.5,10.1667 79.5,14.8333 79.5,19.5C 77.0212,27.4546 73.1879,34.7879 68,41.5C 62.2273,45.6419 56.0607,48.9752 49.5,51.5C 48.513,54.7683 48.1796,58.1016 48.5,61.5C 53.3473,60.8404 57.1806,62.5071 60,66.5C 61.1713,70.9002 62.338,75.2336 63.5,79.5C 47.8333,79.5 32.1667,79.5 16.5,79.5C 16.0766,78.7354 15.7432,77.9021 15.5,77C 17.0377,73.6767 18.2043,70.1767 19,66.5C 21.8194,62.5071 25.6527,60.8404 30.5,61.5C 31.5687,52.0523 27.2353,46.8856 17.5,46C 7.85667,39.2122 1.85667,30.0455 -0.5,18.5C -0.5,14.1667 -0.5,9.83333 -0.5,5.5C 3.43378,4.64032 7.43378,4.30698 11.5,4.5C 11.366,2.70848 11.6993,1.04181 12.5,-0.5 Z M 17.5,4.5 C 32.1667,4.5 46.8333,4.5 61.5,4.5C 62.3374,20.8262 57.3374,34.9928 46.5,47C 41.8333,50.3333 37.1667,50.3333 32.5,47C 25.1491,39.308 20.6491,30.1414 19,19.5C 18.2522,14.5186 17.7522,9.51862 17.5,4.5 Z M 4.5,11.5 C 6.9479,10.5269 9.61456,10.1936 12.5,10.5C 12.6026,21.0812 15.2693,30.9145 20.5,40C 15.4766,37.6441 11.6433,33.8108 9,28.5C 7.06582,22.8307 5.56582,17.164 4.5,11.5 Z M 59.5,40.5 C 63.7239,30.9392 66.3906,20.9392 67.5,10.5C 69.924,10.1924 72.2573,10.5258 74.5,11.5C 73.7496,20.252 70.9162,28.252 66,35.5C 64.0737,37.5389 61.907,39.2055 59.5,40.5 Z M 36.5,54.5 C 38.804,55.4983 41.1373,55.665 43.5,55C 42.1667,57 42.1667,59 43.5,61C 41.1902,61.4966 38.8568,61.6633 36.5,61.5C 36.5,59.1667 36.5,56.8333 36.5,54.5 Z M 25.5,67.5 C 35.1896,67.1682 44.8563,67.5016 54.5,68.5C 55.3482,70.4086 55.6816,72.4086 55.5,74.5C 44.8333,74.5 34.1667,74.5 23.5,74.5C 23.1658,71.812 23.8325,69.4786 25.5,67.5 Z"/></g>
</svg>
