<?xml version="1.0" encoding="UTF-8"?>
<!DOCTYPE svg PUBLIC "-//W3C//DTD SVG 1.1//EN" "http://www.w3.org/Graphics/SVG/1.1/DTD/svg11.dtd">
<svg xmlns="http://www.w3.org/2000/svg" version="1.1" width="80px" height="80px" style="shape-rendering:geometricPrecision; text-rendering:geometricPrecision; image-rendering:optimizeQuality; fill-rule:evenodd; clip-rule:evenodd" xmlns:xlink="http://www.w3.org/1999/xlink">
<g><path style="opacity:0.825" fill="#e5c378" d="M 13.5,1.5 C 30.8365,1.33339 48.1699,1.50006 65.5,2C 66.8333,3.33333 66.8333,4.66667 65.5,6C 69.4213,6.20304 73.2546,6.70304 77,7.5C 78.8213,22.039 74.3213,34.2056 63.5,44C 60.0519,45.9272 56.3852,47.2606 52.5,48C 48.8354,51.2978 47.5021,55.4645 48.5,60.5C 52.6763,60.1683 56.1763,61.5016 59,64.5C 60.1713,68.9002 61.338,73.2336 62.5,77.5C 47.1667,77.5 31.8333,77.5 16.5,77.5C 16.3234,75.0194 17.3234,73.1861 19.5,72C 18.3326,66.7864 20.3326,63.1198 25.5,61C 27.5,60.6667 29.5,60.3333 31.5,60C 31.5029,55.2421 29.8362,51.2421 26.5,48C 14.062,44.8954 6.22864,37.0621 3,24.5C 1.61585,18.8913 1.28252,13.2247 2,7.5C 5.78959,6.86366 9.62292,6.197 13.5,5.5C 12.6371,4.27359 12.6371,2.94026 13.5,1.5 Z M 18.5,6.5 C 32.5,6.5 46.5,6.5 60.5,6.5C 60.4879,18.5483 57.6546,29.8817 52,40.5C 42.538,51.6535 33.8713,50.9869 26,38.5C 21.2973,28.3556 18.7973,17.6889 18.5,6.5 Z M 6.5,12.5 C 8.83333,12.5 11.1667,12.5 13.5,12.5C 14.358,22.6014 16.6914,31.9348 20.5,40.5C 11.5967,33.3601 6.92998,24.0267 6.5,12.5 Z M 65.5,12.5 C 67.8333,12.5 70.1667,12.5 72.5,12.5C 72.4514,24.1297 67.9514,33.463 59,40.5C 60.5969,35.2652 62.2635,29.9318 64,24.5C 65.0153,20.5598 65.5153,16.5598 65.5,12.5 Z M 36.5,54.5 C 38.5,54.5 40.5,54.5 42.5,54.5C 42.2606,56.4672 42.5939,58.3005 43.5,60C 41.1902,60.4966 38.8568,60.6633 36.5,60.5C 36.5,58.5 36.5,56.5 36.5,54.5 Z M 25.5,66.5 C 34.8393,66.3335 44.1726,66.5002 53.5,67C 54.4061,68.6995 54.7394,70.5328 54.5,72.5C 44.5,72.5 34.5,72.5 24.5,72.5C 24.3253,70.3792 24.6586,68.3792 25.5,66.5 Z"/></g>
</svg>
