<?xml version="1.0" encoding="UTF-8"?>
<!DOCTYPE svg PUBLIC "-//W3C//DTD SVG 1.1//EN" "http://www.w3.org/Graphics/SVG/1.1/DTD/svg11.dtd">
<svg xmlns="http://www.w3.org/2000/svg" version="1.1" width="139px" height="68px" style="shape-rendering:geometricPrecision; text-rendering:geometricPrecision; image-rendering:optimizeQuality; fill-rule:evenodd; clip-rule:evenodd" xmlns:xlink="http://www.w3.org/1999/xlink">
<g><path style="opacity:0.726" fill="#fdfffd" d="M 38.5,5.5 C 42.1269,7.11759 42.2936,9.11759 39,11.5C 38.9761,15.8453 37.8094,19.8453 35.5,23.5C 37.0746,27.1267 36.4079,30.2934 33.5,33C 35.5436,35.1308 36.377,37.6308 36,40.5C 33.9114,40.7451 31.9114,40.7451 30,40.5C 29.0746,46.4712 29.5746,52.3045 31.5,58C 30.9931,60.3413 29.8265,60.8413 28,59.5C 26.07,50.9606 24.7367,42.2939 24,33.5C 17.2646,30.4758 10.4312,27.6424 3.5,25C 1.96317,23.8904 1.2965,22.3904 1.5,20.5C 5.12472,22.219 8.95805,23.5523 13,24.5C 14.8869,24.0314 16.3869,23.0314 17.5,21.5C 21.9017,22.9261 26.235,22.7594 30.5,21C 28.3855,20.5756 27.5521,19.4089 28,17.5C 30.0342,14.141 32.3676,13.8076 35,16.5C 35.4744,12.5783 36.641,8.9116 38.5,5.5 Z"/></g>
<g><path style="opacity:0.809" fill="#fefffe" d="M 68.5,31.5 C 66.7226,34.3891 64.0559,35.7224 60.5,35.5C 60.5,36.8333 60.5,38.1667 60.5,39.5C 55.589,39.9668 50.9223,39.3001 46.5,37.5C 44.0193,39.1644 41.3526,39.6644 38.5,39C 40.3285,34.1834 42.1618,29.3501 44,24.5C 45.8138,23.2404 47.6471,23.2404 49.5,24.5C 50.9017,28.5388 52.4017,32.5388 54,36.5C 54.1998,32.2467 54.6998,28.08 55.5,24C 59.2946,23.1628 62.9613,23.4961 66.5,25C 68.0163,26.897 68.683,29.0637 68.5,31.5 Z M 60.5,28.5 C 62.337,28.6395 62.6704,29.3061 61.5,30.5C 60.7025,30.0431 60.3691,29.3764 60.5,28.5 Z M 46.5,31.5 C 47.7733,32.0768 47.7733,32.7435 46.5,33.5C 45.537,33.0302 45.537,32.3635 46.5,31.5 Z"/></g>
<g><path style="opacity:0.842" fill="#fefffe" d="M 68.5,31.5 C 70.2671,29.2084 71.2671,26.5418 71.5,23.5C 73.5,23.5 75.5,23.5 77.5,23.5C 78.4932,28.3134 79.9932,32.9801 82,37.5C 82.4992,32.8452 82.6658,28.1785 82.5,23.5C 86.5,23.5 90.5,23.5 94.5,23.5C 94.5,24.8333 94.5,26.1667 94.5,27.5C 85.2811,27.8857 85.2811,28.8857 94.5,30.5C 96.736,38.6813 93.5694,41.6813 85,39.5C 81.3784,39.3307 77.8784,38.664 74.5,37.5C 72.7613,38.3998 70.928,39.0665 69,39.5C 68.1667,39.1667 67.3333,38.8333 66.5,38.5C 67.5771,36.2706 68.2437,33.9372 68.5,31.5 Z M 87.5,33.5 C 88.675,33.281 89.675,33.6143 90.5,34.5C 88.9483,35.7979 87.9483,35.4646 87.5,33.5 Z"/></g>
<g><path style="opacity:0.81" fill="#fefffe" d="M 108.5,35.5 C 108.5,36.8333 108.5,38.1667 108.5,39.5C 104.5,39.5 100.5,39.5 96.5,39.5C 96.5,34.1667 96.5,28.8333 96.5,23.5C 100.5,23.5 104.5,23.5 108.5,23.5C 108.343,24.8734 108.51,26.2068 109,27.5C 111.513,23.7885 115.013,22.6218 119.5,24C 122.035,24.9282 123.035,26.7615 122.5,29.5C 119.956,29.8957 117.789,29.229 116,27.5C 113.446,29.6032 112.946,32.1032 114.5,35C 116.199,35.3932 117.699,34.8932 119,33.5C 123.525,35.6793 123.359,37.846 118.5,40C 114.017,40.9231 110.683,39.4231 108.5,35.5 Z M 108.5,35.5 C 106.076,35.8076 103.743,35.4742 101.5,34.5C 103.396,33.5344 105.396,33.2011 107.5,33.5C 107.5,32.1667 107.5,30.8333 107.5,29.5C 105.473,29.6621 103.473,29.4955 101.5,29C 103.81,28.5034 106.143,28.3367 108.5,28.5C 108.5,30.8333 108.5,33.1667 108.5,35.5 Z"/></g>
<g><path style="opacity:0.832" fill="#fefffe" d="M 123.5,23.5 C 125.167,23.5 126.833,23.5 128.5,23.5C 128.101,29.6412 129.101,29.9746 131.5,24.5C 133.5,23.1667 135.5,23.1667 137.5,24.5C 136.035,26.5994 134.701,28.7661 133.5,31C 134.615,33.6156 135.949,36.1156 137.5,38.5C 135.5,39.8333 133.5,39.8333 131.5,38.5C 129.101,33.0254 128.101,33.3588 128.5,39.5C 126.833,39.5 125.167,39.5 123.5,39.5C 123.5,34.1667 123.5,28.8333 123.5,23.5 Z"/></g>
</svg>
